<svg xmlns="http://www.w3.org/2000/svg" viewBox="0 0 424.15 424.15"><defs><style>.cls-1{fill:#f8e700;}.cls-2{fill:#1d1d1b;}.cls-3{font-size:61.38px;letter-spacing:-0.05em;}.cls-3,.cls-7{fill:#12100b;font-family:Montserrat-BoldItalic, Montserrat;font-weight:700;font-style:italic;}.cls-4{letter-spacing:-0.06em;}.cls-5{letter-spacing:-0.07em;fill:#000;}.cls-6{fill:#fff;}.cls-7{font-size:239.04px;letter-spacing:-0.06em;}</style></defs><title>logoapp0</title><g id="Calque_2" data-name="Calque 2"><g id="Calque_1-2" data-name="Calque 1"><rect class="cls-1" width="424.15" height="424.15" rx="40.15"/><polyline class="cls-1" points="30.64 301.19 218.28 301.19 233.95 301.19 323.91 301.19"/><path class="cls-2" d="M83.54,309h9.57a.38.38,0,0,0,.37-.31l.46-2.28a.38.38,0,0,0-.37-.45H80.09a.38.38,0,0,0-.37.29l-.55,2.28a.39.39,0,0,0,.37.47Z"/><path class="cls-2" d="M81.29,322.65h9.56a.39.39,0,0,0,.38-.31l.45-2.27a.38.38,0,0,0-.37-.46H77.83a.37.37,0,0,0-.37.3l-.54,2.27a.38.38,0,0,0,.37.47Z"/><path class="cls-2" d="M87,312.77H73.06a.38.38,0,0,0-.37.29l-.54,2.28a.38.38,0,0,0,.37.47h19.4a.38.38,0,0,0,.37-.31l.46-2.27a.39.39,0,0,0-.38-.46Z"/><text class="cls-3" transform="translate(93.29 335.8)">DEL<tspan class="cls-4" x="118.82" y="0">I</tspan><tspan class="cls-5" x="135.33" y="0">V</tspan><tspan class="cls-6" x="176.82" y="0">IT</tspan></text><text class="cls-7" transform="translate(86.69 259.4)">D<tspan class="cls-6" x="184.3" y="0">I</tspan></text></g></g></svg>